<svg width="513" height="513" viewBox="0 0 513 513" fill="none" xmlns="http://www.w3.org/2000/svg">
<path d="M416.246 80.9861H96.2462C69.7365 80.9861 48.2462 102.476 48.2462 128.986V416.986C48.2462 443.496 69.7365 464.986 96.2462 464.986H416.246C442.756 464.986 464.246 443.496 464.246 416.986V128.986C464.246 102.476 442.756 80.9861 416.246 80.9861Z" stroke="black" stroke-width="32" stroke-linejoin="round"/>
<path d="M296.246 256.986C309.501 256.986 320.246 246.241 320.246 232.986C320.246 219.731 309.501 208.986 296.246 208.986C282.991 208.986 272.246 219.731 272.246 232.986C272.246 246.241 282.991 256.986 296.246 256.986Z" fill="black"/>
<path d="M376.246 256.986C389.501 256.986 400.246 246.241 400.246 232.986C400.246 219.731 389.501 208.986 376.246 208.986C362.991 208.986 352.246 219.731 352.246 232.986C352.246 246.241 362.991 256.986 376.246 256.986Z" fill="black"/>
<path d="M296.246 336.986C309.501 336.986 320.246 326.241 320.246 312.986C320.246 299.731 309.501 288.986 296.246 288.986C282.991 288.986 272.246 299.731 272.246 312.986C272.246 326.241 282.991 336.986 296.246 336.986Z" fill="black"/>
<path d="M376.246 336.986C389.501 336.986 400.246 326.241 400.246 312.986C400.246 299.731 389.501 288.986 376.246 288.986C362.991 288.986 352.246 299.731 352.246 312.986C352.246 326.241 362.991 336.986 376.246 336.986Z" fill="black"/>
<path d="M136.246 336.986C149.501 336.986 160.246 326.241 160.246 312.986C160.246 299.731 149.501 288.986 136.246 288.986C122.991 288.986 112.246 299.731 112.246 312.986C112.246 326.241 122.991 336.986 136.246 336.986Z" fill="black"/>
<path d="M216.246 336.986C229.501 336.986 240.246 326.241 240.246 312.986C240.246 299.731 229.501 288.986 216.246 288.986C202.991 288.986 192.246 299.731 192.246 312.986C192.246 326.241 202.991 336.986 216.246 336.986Z" fill="black"/>
<path d="M136.246 416.986C149.501 416.986 160.246 406.241 160.246 392.986C160.246 379.731 149.501 368.986 136.246 368.986C122.991 368.986 112.246 379.731 112.246 392.986C112.246 406.241 122.991 416.986 136.246 416.986Z" fill="black"/>
<path d="M216.246 416.986C229.501 416.986 240.246 406.241 240.246 392.986C240.246 379.731 229.501 368.986 216.246 368.986C202.991 368.986 192.246 379.731 192.246 392.986C192.246 406.241 202.991 416.986 216.246 416.986Z" fill="black"/>
<path d="M296.246 416.986C309.501 416.986 320.246 406.241 320.246 392.986C320.246 379.731 309.501 368.986 296.246 368.986C282.991 368.986 272.246 379.731 272.246 392.986C272.246 406.241 282.991 416.986 296.246 416.986Z" fill="black"/>
<path d="M128.246 48.9861V80.9861M384.246 48.9861V80.9861" stroke="black" stroke-width="32" stroke-linecap="round" stroke-linejoin="round"/>
<path d="M464.246 160.986H48.2462" stroke="black" stroke-width="32" stroke-linejoin="round"/>
</svg>
