<svg width="205" height="205" viewBox="0 0 205 205" fill="none" xmlns="http://www.w3.org/2000/svg">
<circle cx="102.5" cy="101.5" r="75.5" fill="#005EE1"/>
<path d="M97.9106 69.5215H73.0912C71.2105 69.5215 69.4068 70.2686 68.077 71.5985C66.7471 72.9283 66 74.732 66 76.6127V126.251C66 128.132 66.7471 129.936 68.077 131.266C69.4068 132.595 71.2105 133.343 73.0912 133.343H122.73C124.611 133.343 126.414 132.595 127.744 131.266C129.074 129.936 129.821 128.132 129.821 126.251V101.432" stroke="white" stroke-width="7.09124" stroke-linecap="round" stroke-linejoin="round"/>
<path d="M124.502 64.203C125.913 62.7924 127.826 62 129.821 62C131.816 62 133.729 62.7924 135.139 64.203C136.55 65.6135 137.342 67.5266 137.342 69.5214C137.342 71.5162 136.55 73.4293 135.139 74.8398L101.456 108.523L87.2734 112.069L90.8191 97.8863L124.502 64.203Z" stroke="white" stroke-width="7.09124" stroke-linecap="round" stroke-linejoin="round"/>
</svg>
