<svg width="513" height="512" viewBox="0 0 513 512" fill="none" xmlns="http://www.w3.org/2000/svg">
<path d="M457.317 421.397L363.227 327.307C385.879 297.15 398.108 260.444 398.067 222.727C398.067 126.387 319.687 48.0068 223.347 48.0068C127.007 48.0068 48.6267 126.387 48.6267 222.727C48.6267 319.067 127.007 397.447 223.347 397.447C261.063 397.488 297.77 385.26 327.927 362.607L422.017 456.697C426.78 460.954 432.992 463.227 439.377 463.048C445.763 462.87 451.838 460.253 456.356 455.736C460.873 451.219 463.49 445.143 463.668 438.758C463.847 432.372 461.574 426.16 457.317 421.397ZM98.5467 222.727C98.5467 198.044 105.866 173.915 119.579 153.392C133.293 132.868 152.784 116.872 175.588 107.427C198.392 97.9809 223.485 95.5094 247.694 100.325C271.903 105.14 294.14 117.026 311.594 134.48C329.047 151.933 340.933 174.171 345.749 198.38C350.564 222.588 348.093 247.681 338.647 270.486C329.201 293.29 313.205 312.781 292.682 326.494C272.159 340.207 248.03 347.527 223.347 347.527C190.26 347.487 158.54 334.326 135.144 310.93C111.748 287.534 98.5864 255.814 98.5467 222.727Z" fill="black"/>
</svg>
